<?xml version="1.0" standalone="no"?>
<!DOCTYPE svg PUBLIC "-//W3C//DTD SVG 1.1//EN" "http://www.w3.org/Graphics/SVG/1.1/DTD/svg11.dtd" >
<!--
2013-9-30: Created.
-->
<svg>
<metadata>
Created by iconfont
</metadata>
<defs>

<font id="iconfont" horiz-adv-x="1024" >
  <font-face
    font-family="iconfont"
    font-weight="500"
    font-stretch="normal"
    units-per-em="1024"
    ascent="896"
    descent="-128"
  />
    <missing-glyph />
    
    <glyph glyph-name="location" unicode="&#58943;" d="M507.531222 651.76751c-88.173179 0-159.635767-71.462588-159.635767-159.635767s71.462588-159.635767 159.635767-159.635767 159.635767 71.462588 159.635767 159.635767S595.7044 651.76751 507.531222 651.76751zM507.531222 372.404917c-66.13014 0-119.726825 53.596685-119.726825 119.726825s53.596685 119.726825 119.726825 119.726825 119.726825-53.596685 119.726825-119.726825S573.662385 372.404917 507.531222 372.404917zM510.85185 824.709327c-184.835705 0-335.226924-150.391219-335.226924-335.235111 0-178.654936 304.032458-507.074827 316.971142-522.337439l18.255783-21.51399 18.255783 21.51399c12.938684 15.262612 316.979328 343.682503 316.979328 522.337439C846.086961 674.318108 695.695742 824.709327 510.85185 824.709327zM510.773056 20.139945C416.162258 135.518742 223.515656 364.414943 223.515656 489.474216c0 158.435429 128.908952 287.344381 287.336194 287.344381 158.435429 0 287.344381-128.908952 287.344381-287.344381C798.196231 351.523331 576.561411 100.955552 510.773056 20.139945z"  horiz-adv-x="1024" />

    
    <glyph glyph-name="speechbubble" unicode="&#59549;" d="M170.666667 853.333333l682.666667 0q52.992 0 90.496-37.504t37.504-90.496l0-469.333333q0-52.992-37.504-90.496t-90.496-37.504l-341.333333 0-298.666667-213.333333 0 213.333333-42.666667 0q-52.992 0-90.496 37.504t-37.504 90.496l0 469.333333q0 52.992 37.504 90.496t90.496 37.504zM853.333333 768l-682.666667 0q-17.664 0-30.165333-12.501333t-12.501333-30.165333l0-469.333333q0-17.664 12.501333-30.165333t30.165333-12.501333l128 0 0-132.992 185.984 132.992 368.682667 0q17.664 0 30.165333 12.501333t12.501333 30.165333l0 469.333333q0 17.664-12.501333 30.165333t-30.165333 12.501333z"  horiz-adv-x="1024" />

    
    <glyph glyph-name="underline" unicode="&#59040;" d="M742.4-25.6l-460.8 0c-14.1312 0-25.6 11.4688-25.6 25.6s11.4688 25.6 25.6 25.6l460.8 0c14.1312 0 25.6-11.4688 25.6-25.6s-11.4688-25.6-25.6-25.6zM512 128c-141.1584 0-256 114.8416-256 256l0 384c0 14.1312 11.4688 25.6 25.6 25.6s25.6-11.4688 25.6-25.6l0-384c0-112.9472 91.8528-204.8 204.8-204.8s204.8 91.8528 204.8 204.8l0 384c0 14.1312 11.4688 25.6 25.6 25.6s25.6-11.4688 25.6-25.6l0-384c0-141.1584-114.8416-256-256-256z"  horiz-adv-x="1024" />

    
    <glyph glyph-name="7squareo" unicode="&#58953;" d="M80-86.4c-3.2 0-12.8 0-22.4 9.6C52.8-73.6 48-65.6 48-52.8L48 806.4c0 3.2 0 14.4 8 22.4C60.8 833.6 67.2 838.4 80 838.4l860.8 0c1.6 0 12.8 0 22.4-8 4.8-4.8 9.6-11.2 9.6-24l0-857.6c0-4.8 0-16-6.4-24-4.8-4.8-11.2-11.2-24-11.2L80-86.4C80-86.4 80-86.4 80-86.4zM80 806.4l0-859.2c0-1.6 0-1.6 0-1.6l860.8 0 0 1.6L940.8 806.4 80 806.4z"  horiz-adv-x="1024" />

    
    <glyph glyph-name="cc-heart-o" unicode="&#58966;" d="M510.813-27.968c-3.95 0-7.855 1.01-11.435 2.939-4.41 2.482-109.395 61.233-215.984 157.464-63.066 56.912-113.412 115.112-149.723 173.081-46.278 73.908-69.705 147.655-69.705 219.198 0 136.172 110.771 246.942 246.941 246.942 46.097 0 95.064-17.271 137.873-48.645 25.01-18.327 46.324-40.444 62.033-63.918 15.713 23.474 37.025 45.59 62.014 63.918 42.808 31.374 91.775 48.645 137.892 48.645 136.152 0 246.943-110.77 246.943-246.942 0-71.543-23.472-145.29-69.727-219.198-36.241-57.968-86.631-116.168-149.654-173.081-106.568-96.232-211.575-154.983-215.983-157.464-3.582-1.929-7.484-2.939-11.436-2.939l-0.048 0zM310.908 724.62c-110.195 0-199.905-89.709-199.905-199.906 0-142.993 110.542-272.896 203.236-356.773 82.798-74.872 166.719-127.375 196.575-145.198 29.858 17.823 113.78 70.326 196.601 145.198 92.693 83.832 203.212 213.78 203.212 356.773 0 110.197-89.711 199.906-199.907 199.906-80.106 0-157.897-65.893-177.602-125.034-3.219-9.576-12.196-16.076-22.304-16.076-10.104 0-19.084 6.5-22.301 16.076-19.705 59.141-97.493 125.034-177.605 125.034z"  horiz-adv-x="1024" />

    
    <glyph glyph-name="bold" unicode="&#59139;" d="M184.919 69.965c29.819 7.455 60.105 7.921 88.992 20.035 16.308 27.489 13.978 75.946 13.978 107.163 0 10.251 0.932 455.677-10.25 477.575-6.989 13.512-75.48 16.773-90.856 18.637l-1.864 38.672c110.891 1.864 221.782 9.785 332.206 9.785 20.967 0 42.399-0.466 63.366-0.466 105.3 0 221.315-50.32 221.315-171.462 0-83.4-63.366-114.617-129.062-144.437 88.525-20.035 167.268-80.14 167.268-177.984 0-160.279-145.835-213.395-282.353-213.395-41.001 0-82.002 2.796-123.004 2.796-83.401 0-167.734-7.455-250.669-10.717L184.919 69.965zM486.84 437.115c95.98 0 164.473 27.024 164.473 134.653 0 90.855-80.605 122.073-158.416 122.073-20.501 0-40.536-2.796-60.57-6.058 0-47.059 3.727-94.117 3.727-141.177 0-24.693-0.466-49.388-0.466-74.082 0-10.716 0-21.433 0.466-32.148C452.827 437.581 470.066 437.115 486.84 437.115zM507.807 77.886c106.231 0 175.188 42.399 175.188 156.086 0 28.888-3.728 59.173-19.103 83.866-43.332 69.89-105.766 73.617-180.78 73.617-13.978 0-34.013 0-47.059-4.66 0-49.388-0.466-98.776-0.466-147.698 0-32.149-4.193-119.277 6.989-146.301C463.078 83.943 485.442 77.886 507.807 77.886z"  horiz-adv-x="1024" />

    
    <glyph glyph-name="flip" unicode="&#60259;" d="M809.984 0l0 86.016 86.016 0q0-34.005333-25.984-59.989333t-59.989333-25.984zM809.984 342.016l0 84.010667 86.016 0 0-84.010667-86.016 0zM640 681.984l0 86.016 86.016 0 0-86.016-86.016 0zM809.984 169.984l0 86.016 86.016 0 0-86.016-86.016 0zM470.016-86.016l0 939.989333 84.010667 0 0-939.989333-84.010667 0zM809.984 768q34.005333 0 59.989333-25.984t25.984-59.989333l-86.016 0 0 86.016zM128 681.984q0 34.005333 25.984 59.989333t59.989333 25.984l169.984 0 0-86.016-169.984 0 0-596.010667 169.984 0 0-86.016-169.984 0q-34.005333 0-59.989333 25.984t-25.984 59.989333l0 596.010667zM809.984 512l0 86.016 86.016 0 0-86.016-86.016 0zM640 0l0 86.016 86.016 0 0-86.016-86.016 0z"  horiz-adv-x="1024" />

    
    <glyph glyph-name="ok" unicode="&#58941;" d="M886.745 646.433c-12.864 12.064-33.152 11.488-45.217-1.408L414.776 190.656l-233.12 229.696c-12.608 12.416-32.864 12.288-45.28-0.32-12.416-12.575-12.256-32.863 0.352-45.248l256.48-252.672c0.096-0.096 0.224-0.128 0.319-0.224 0.097-0.096 0.129-0.224 0.225-0.32 2.016-1.92 4.448-3.008 6.784-4.288 1.151-0.672 2.144-1.664 3.359-2.144 3.776-1.472 7.776-2.24 11.744-2.24 4.192 0 8.384 0.832 12.288 2.496 1.313 0.544 2.336 1.664 3.552 2.368 2.4 1.408 4.896 2.592 6.944 4.672 0.096 0.096 0.128 0.256 0.224 0.352 0.064 0.097 0.192 0.129 0.288 0.225l449.185 478.208C900.28 614.049 899.608 634.305 886.745 646.433z"  horiz-adv-x="1024" />

    
    <glyph glyph-name="shape" unicode="&#59383;" d="M832 558.4 832 789.312C832 812.928 812.864 832 789.376 832L106.688 832C83.072 832 64 812.928 64 789.312l0-682.688C64 83.072 83.072 64 106.688 64l251.456 0c62.912-96.192 171.328-160 294.592-160 194.112 0 352 157.952 352 352C1004.736 384.576 935.232 496.96 832 558.4zM128 128 128 768l640 0 0-179.776C731.776 600.832 693.12 608 652.736 608 458.688 608 300.8 450.048 300.8 256c0-45.184 8.896-88.256 24.448-128L128 128zM652.736-32C494.016-32 364.8 97.216 364.8 256s129.216 288 287.936 288 288-129.216 288-288S811.52-32 652.736-32z"  horiz-adv-x="1024" />

    
    <glyph glyph-name="duiqi03" unicode="&#58928;" d="M118.153846 620.307692l787.692308 0 0-78.769231-787.692308 0 0 78.769231ZM590.769231 423.384615l315.076923 0 0-78.769231-315.076923 0 0 78.769231ZM354.461538 226.461538l551.384615 0 0-78.769231-551.384615 0 0 78.769231Z"  horiz-adv-x="1024" />

    
    <glyph glyph-name="duiqi02" unicode="&#58929;" d="M118.153846 620.307692l787.692308 0 0-78.769231-787.692308 0 0 78.769231ZM354.461538 423.384615l315.076923 0 0-78.769231-315.076923 0 0 78.769231ZM236.307692 226.461538l551.384615 0 0-78.769231-551.384615 0 0 78.769231Z"  horiz-adv-x="1024" />

    
    <glyph glyph-name="duiqi01" unicode="&#58930;" d="M118.153846 620.307692l787.692308 0 0-78.769231-787.692308 0 0 78.769231ZM118.153846 423.384615l315.076923 0 0-78.769231-315.076923 0 0 78.769231ZM118.153846 226.461538l551.384615 0 0-78.769231-551.384615 0 0 78.769231Z"  horiz-adv-x="1024" />

    
    <glyph glyph-name="et-uploading1" unicode="&#59025;" d="M922.086 712.070v-656.141c0-60.391-48.965-109.356-109.358-109.356l-601.463-0c-60.419 0-109.357 48.965-109.357 109.356l-0 656.141c0 60.392 48.938 109.358 109.357 109.358h601.463c60.392-0 109.358-48.966 109.358-109.358zM867.408 602.713h-710.821v-546.785c0-30.196 24.484-54.679 54.679-54.679h601.463c30.196 0 54.68 24.484 54.68 54.679l0 546.785zM867.408 712.070c0 30.196-24.485 54.679-54.68 54.679h-601.462c-30.196 0-54.679-24.484-54.679-54.679v-54.679h710.821l-0 54.679zM355.677 309.698c-10.731 10.761-10.731 28.168 0 38.928l135.096 163.473c5.713 5.742 13.295 8.171 20.798 7.796 7.475 0.376 15.086-2.054 20.798-7.796l135.095-163.473c10.732-10.76 10.732-28.167 0-38.928-10.707-10.731-28.087-10.731-38.82 0l-89.306 108.076v-334.507c0-15.084-12.256-27.34-27.34-27.34-15.085 0-27.34 12.256-27.34 27.34l0 335.545-90.188-109.116c-10.706-10.731-28.086-10.731-38.793 0.001z"  horiz-adv-x="1024" />

    
    <glyph glyph-name="arrow" unicode="&#58916;" d="M624.576 896 544.128 815.488 976.192 383.968 544.128-47.488 624.576-128 1136.096 383.968Z"  horiz-adv-x="1152" />

    
    <glyph glyph-name="arrowsright" unicode="&#58931;" d="M958.759625 385.997494 529.835715 691.263036l0-203.51002L63.312466 487.753015l0-203.51002 466.522226 0 0-203.51002L958.759625 385.997494z"  horiz-adv-x="1024" />

    
    <glyph glyph-name="circle" unicode="&#58933;" d="M511.346619 831.910333c-246.965741 0-447.163319-200.197578-447.163319-447.163319 0-246.966765 200.197578-447.163319 447.163319-447.163319 246.944252 0 447.164343 200.197578 447.164343 447.163319C958.511985 631.712755 758.290871 831.910333 511.346619 831.910333zM511.346619-17.700895c-222.271316 0-402.446885 180.175569-402.446885 402.446885S289.075303 787.193899 511.346619 787.193899c222.271316 0 402.447908-180.175569 402.447908-402.446885S733.617935-17.700895 511.346619-17.700895z"  horiz-adv-x="1024" />

    
    <glyph glyph-name="arrowsrightline" unicode="&#59021;" d="M581.661058 8.083351l-24.940019 25.712615c-5.762237 5.962805-8.940626 13.833053-8.940626 22.179139 0 8.384971 3.178389 16.256242 8.940626 22.177092l253.429966 261.397429-726.44507 0c-10.968819 0-19.911492 8.903787-19.911492 19.832697l0 51.627844c0 10.968819 8.942673 19.871583 19.911492 19.871583l726.644615 0L556.721039 692.439838c-5.762237 5.921873-8.940626 13.831007-8.940626 22.177092 0 8.385994 3.178389 16.256242 8.940626 22.177092l24.940019 25.714661c5.882987 6.080485 13.731746 9.419534 22.098297 9.419534 8.385994 0 16.256242-3.339048 22.157649-9.419534l324.372715-334.526983c0.3776-0.398066 0.715291-0.795109 1.01205-1.153266 4.869914-3.696182 7.849782-9.459442 7.849782-15.818267l0-51.627844c0-6.477528-3.098571-12.360516-8.18645-16.016789-0.23843-0.277316-0.476861-0.556679-0.7552-0.836041L625.897561 8.083351c-5.881964-6.081509-13.751189-9.420557-22.138206-9.420557C595.392804-1.337205 587.544045 2.042775 581.661058 8.083351z"  horiz-adv-x="1024" />

    
    <glyph glyph-name="error" unicode="&#58972;" d="M168.18242 676.483424l48.700165 48.700165 633.096009-633.096009-48.699142-48.700165L168.18242 676.483424zM216.882586 43.387415l-48.699142 48.700165 633.096009 633.096009 48.699142-48.699142L216.882586 43.387415z"  horiz-adv-x="1024" />

    
    <glyph glyph-name="triangle-s-o" unicode="&#59212;" d="M480 896l-480-896h960l-480 896zM480 774.016l369.984-710.016h-747.968l377.984 710.016z"  horiz-adv-x="1024" />

    
    <glyph glyph-name="star" unicode="&#58993;" d="M759.632937-13.023362c-2.443655 0-4.894474 0.582261-7.141654 1.763157L511.709381 115.327888 270.924409-11.260206c-5.169743-2.717901-11.438517-2.2656-16.165168 1.168616-4.726651 3.434216-7.094582 9.254781-6.106068 15.012925l45.985334 268.116457L99.840916 462.918397c-4.183276 4.077875-5.689582 10.177803-3.88447 15.734356 1.806135 5.556553 6.609535 9.606799 12.391215 10.446933l269.204232 39.117926 120.391974 243.940848c2.585895 5.239328 7.921413 8.555863 13.764492 8.555863s11.178597-3.317559 13.764492-8.556886l120.390951-243.940848 269.204232-39.117926c5.78168-0.840134 10.586103-4.89038 12.390191-10.446933 1.806135-5.556553 0.299829-11.656481-3.88447-15.734356L728.778208 273.037792l45.985334-268.116457c0.98749-5.759167-1.379417-11.57871-6.107091-15.013949C765.983575-12.034848 762.815419-13.023362 759.632937-13.023362zM143.540184 463.192643l178.304965-173.804465c3.617387-3.526313 5.26798-8.607028 4.414543-13.585413l-42.091654-245.416456L504.56568 146.256294c4.472871 2.350534 9.813506 2.350534 14.286378 0l220.396619-115.869984L697.156 275.801742c-0.853437 4.979408 0.796132 10.060123 4.414543 13.586436l178.304965 173.804465-246.412133 35.805484c-4.999874 0.726547-9.321296 3.867074-11.55722 8.397251L511.709381 730.681814 401.509537 507.395378c-2.235924-4.530177-6.558369-7.670703-11.55722-8.397251L143.540184 463.192643z"  horiz-adv-x="1024" />

    
    <glyph glyph-name="Reset" unicode="&#58900;" d="M808 293.1c-23.6-164.2-181.8-285.5-358.7-248.3C336.9 68.4 245.6 159.2 222 271.6c-40.3 192 92 361.8 290.4 361.8v-99.2l248 148.8-248 148.8v-99.2c-248 0-438-222.4-388.6-476.5 30.1-154.7 155-279.4 309.7-309.5C668-99 875.6 62.1 906.2 279.9c4.2 29.6-19.7 55.8-49.5 55.8h0.1c-24.7 0-45.3-18.2-48.8-42.6z"  horiz-adv-x="1024" />

    
    <glyph glyph-name="ic_delete_sweep" unicode="&#59780;" d="M640 213.333333h170.666667v-85.333333h-170.666667z m0 341.333334h298.666667v-85.333334H640z m0-170.666667h256v-85.333333H640zM128 128c0-46.933333 38.4-85.333333 85.333333-85.333333h256c46.933333 0 85.333333 38.4 85.333334 85.333333V554.666667H128v-426.666667z m469.333333 554.666667h-128l-42.666666 42.666666h-170.666667l-42.666667-42.666666H85.333333v-85.333334h512z"  horiz-adv-x="1024" />

    
    <glyph glyph-name="sun-o" unicode="&#59180;" d="M841.072342 384.109691c0 181.684496-147.387845 329.072342-329.072342 329.072341s-329.072342-147.387845-329.072342-329.072341 147.387845-329.072342 329.072342-329.072342 329.072342 147.387845 329.072342 329.072342z m157.662215-158.247233a17.623652 17.623652 0 0 0-11.444405-11.444405l-166.803114-54.84539v-174.810541a18.903378 18.903378 0 0 0-7.422409-14.844819 17.367707 17.367707 0 0 0-16.563308-2.303506l-166.803113 53.711919-102.816825-141.683925c-3.436978-4.570449-9.140898-7.422409-14.844819-7.422409s-11.444405 2.85196-14.844819 7.422409l-102.816825 141.683925-166.803114-53.711919a17.258016 17.258016 0 0 0-16.563308 2.303506 18.939941 18.939941 0 0 0-7.422409 14.844819v174.810541l-166.803114 54.84539c-5.155467 1.718489-9.725916 5.703921-11.444405 11.444405s-1.133471 11.992859 2.303507 16.563308L130.458902 384.109691 27.642077 525.793616C24.205099 530.949082 23.656645 536.653003 25.33857 542.356924s6.288938 9.725916 11.444405 11.444404l166.803114 54.845391V783.457259c0 5.703921 2.85196 11.444405 7.422409 14.844819a17.367707 17.367707 0 0 0 16.563308 2.303507l166.803114-53.711919L497.191745 888.577591c6.837392 9.140898 22.852246 9.140898 29.689638 0l102.816825-141.683925 166.803113 53.711919a17.258016 17.258016 0 0 0 16.563308-2.303507c4.570449-3.436978 7.422409-9.140898 7.422409-14.844819v-174.81054l166.803114-54.845391c5.155467-1.718489 9.725916-5.703921 11.444405-11.444404s1.133471-11.444405-2.303507-16.563308L893.614226 384.109691l102.816824-141.683925a18.793687 18.793687 0 0 0 2.303507-16.563308z"  horiz-adv-x="1024" />

    
    <glyph glyph-name="delete" unicode="&#59100;" d="M999.04 720.064H677.952v38.016c0 51.2-45.184 101.312-96.384 101.312H442.432c-51.136 0-88.64-50.112-88.64-101.312v-38.016h-328.768a23.424 23.424 0 0 1 0-46.848h119.872v-610.816c0-89.472 68.864-153.728 158.4-153.728h417.408c89.472 0 166.08 64.256 166.08 153.728V673.216h112.256a23.36 23.36 0 0 1 23.104 23.424 23.296 23.296 0 0 1-23.104 23.424z m-598.336 38.016c0 25.536 16.256 54.464 41.728 54.464h139.136c25.6 0 50.88-28.864 50.88-54.464v-38.016h-231.744v38.016z m440.64-695.68c0-63.872-56.64-106.88-120.576-106.88h-417.408c-63.872 0-111.488 43.008-111.488 106.88V673.216h649.472v-610.816zM515.904 549.376c-12.8 0-22.72-10.368-22.72-23.168v-394.176c0-12.864 9.92-23.232 22.72-23.232 12.8 0 22.784 10.368 22.784 23.232V526.208c0 12.8-9.984 23.168-22.784 23.168M330.432 502.976a23.424 23.424 0 0 1-23.488-23.168v-301.44a23.424 23.424 0 0 1 46.848 0v301.44c0 12.8-10.624 23.168-23.36 23.168M655.168 479.808v-301.44a23.36 23.36 0 0 1 46.848 0v301.44a23.424 23.424 0 0 1-46.848 0"  horiz-adv-x="1024" />

    
    <glyph glyph-name="line" unicode="&#59389;" d="M904 420H120c-4.4 0-8-3.6-8-8v-56c0-4.4 3.6-8 8-8h784c4.4 0 8 3.6 8 8v56c0 4.4-3.6 8-8 8z"  horiz-adv-x="1024" />

    
    <glyph glyph-name="rectangle" unicode="&#59385;" d="M128 42.666667h768a42.666667 42.666667 0 0 1 42.666667 42.666666V682.666667a42.666667 42.666667 0 0 1-42.666667 42.666666H128a42.666667 42.666667 0 0 1-42.666667-42.666666v-597.333334a42.666667 42.666667 0 0 1 42.666667-42.666666zM170.666667 640h682.666666v-512H170.666667V640z"  horiz-adv-x="1024" />

    
    <glyph glyph-name="redo" unicode="&#58934;" d="M127.5904 666.112C209.7664 748.288 319.0784 793.6 435.3024 793.6s225.536-45.2608 307.712-127.488S870.5024 474.624 870.5024 358.4v-66.2016l109.8752 109.8752a25.6 25.6 0 0 0 36.1984-36.1984l-153.6-153.6a25.4976 25.4976 0 0 0-36.2496 0l-153.6 153.6a25.6 25.6 0 0 0 36.1984 36.1984l109.8752-109.8752V358.4c0 211.7632-172.2368 384-384 384s-384-172.2368-384-384 172.2368-384 384-384a25.6 25.6 0 0 0 0-51.2c-116.224 0-225.536 45.2608-307.712 127.488s-127.488 191.488-127.488 307.712c0 116.224 45.2608 225.536 127.488 307.712z"  horiz-adv-x="1024" />

    
    <glyph glyph-name="undo" unicode="&#58954;" d="M896.512 666.112C814.336 748.288 705.024 793.6 588.8 793.6s-225.536-45.2608-307.712-127.488S153.6 474.624 153.6 358.4v-66.2016L43.7248 402.0736a25.6 25.6 0 0 1-36.1984-36.1984l153.6-153.6a25.4976 25.4976 0 0 1 36.2496 0l153.6 153.6a25.6 25.6 0 0 1-36.1984 36.1984l-109.8752-109.8752V358.4c0 211.7632 172.2368 384 384 384s384-172.2368 384-384-172.2368-384-384-384a25.6 25.6 0 0 1 0-51.2c116.224 0 225.536 45.2608 307.712 127.488s127.488 191.488 127.488 307.712c0 116.224-45.2608 225.536-127.488 307.712z"  horiz-adv-x="1024" />

    
    <glyph glyph-name="tool_hFlip" unicode="&#58959;" d="M483.03214242 731.61428833h57.93571516v-695.22857666h-57.93571516zM627.87142966 384l231.74285867-231.74285867V615.74285867z m202.77500109-161.93032287L668.71610854 384 830.64643075 545.93032287zM164.38571167 152.25714132999997l231.74285867 231.74285867-231.74285867 231.74285867zM193.35356925 545.93032287L355.28389146 384 193.35356925 222.06967712999995z"  horiz-adv-x="1024" />

    
    <glyph glyph-name="tool_polygon" unicode="&#58968;" d="M851.46707823 492.62946531a40.7360494 40.7360494 0 0 1-27.15736585-10.86294672l-247.4036072 172.1777024a39.92132842 39.92132842 0 0 1 2.98731072 15.20812491 40.7360494 40.7360494 0 0 1-81.47209882 0 39.92132842 39.92132842 0 0 1 2.98731006-15.20812491L254.5481677 481.76651859a40.7360494 40.7360494 0 1 1-27.15736648-70.60915211l92.87819266-274.56097304a40.7360494 40.7360494 0 1 1 54.31473298-51.32742227h329.96200024a40.7360494 40.7360494 0 1 1 54.31473235 51.32742227L850.92393113 411.15736648a40.7360494 40.7360494 0 0 1 0 81.47209883z m-117.31982231-353.04576179a40.46447555 40.46447555 0 0 1-30.4162498-28.5152346H374.58372686A40.46447555 40.46447555 0 0 1 344.16747642 139.58370351999997L249.65984178 417.94670764A40.7360494 40.7360494 0 0 1 267.58370352 451.8934159a47.79696443 47.79696443 0 0 1-1.62944198 10.86294609l249.30462242 173.5355705a40.1929023 40.1929023 0 0 1 47.79696442 0l249.30462242-173.5355705a47.79696443 47.79696443 0 0 1-1.62944197-10.86294609 40.7360494 40.7360494 0 0 1 17.92386173-33.94670826z"  horiz-adv-x="1109" />

    
    <glyph glyph-name="tool_vFlip" unicode="&#58975;" d="M164.38571167 412.96785758h695.22857666v-57.93571516H164.38571167zM512 499.87142966l231.74285867 231.74285867H280.25714133z m161.93032287 202.77500109L512 540.71610854 350.06967713 702.64643075zM743.74285867 36.38571166999998l-231.74285867 231.74285867-231.74285867-231.74285867zM350.06967713 65.35356924999996L512 227.28389145999995 673.93032287 65.35356924999996z"  horiz-adv-x="1024" />

    
    <glyph glyph-name="italic" unicode="&#59243;" d="M793.6 793.6h-409.6a25.6 25.6 0 0 1 0-51.2h173.568l-143.36-716.8H230.4a25.6 25.6 0 0 1 0-51.2h409.6a25.6 25.6 0 0 1 0 51.2H466.432l143.36 716.8h183.808a25.6 25.6 0 0 1 0 51.2z"  horiz-adv-x="1024" />

    
    <glyph glyph-name="text" unicode="&#58942;" d="M854.4 498.56c-17.92 0-32 14.08-32 32V609.28c0 14.72-8.96 26.24-17.28 26.24H225.92c-8.32 0-17.28-10.88-17.28-26.24v-78.72c0-17.92-14.08-32-32-32s-32 14.08-32 32V609.28c0 49.92 36.48 90.24 81.28 90.24h579.2c44.8 0 81.28-40.32 81.28-90.24v-78.72c0-17.28-14.72-32-32-32zM515.2 4.480000000000018c-17.92 0-32 14.08-32 32v627.2c0 17.92 14.08 32 32 32s32-14.08 32-32v-627.2c0-17.28-14.08-32-32-32zM626.56-3.2000000000000455H403.84c-17.92 0-32 14.08-32 32s14.08 32 32 32h222.72c17.92 0 32-14.08 32-32s-14.08-32-32-32z"  horiz-adv-x="1024" />

    
    <glyph glyph-name="rotate_left" unicode="&#59387;" d="M867.9 527.8c-19.3 47.7-47.7 90.4-84.4 127-36.6 36.6-79.4 65-127 84.4-46 18.7-94.6 28.1-144.5 28.1-49.9 0-98.5-9.5-144.5-28.1-28.3-11.5-54.9-26.2-79.5-43.9V789c0 17.7-14.3 32-32 32s-32-14.3-32-32v-181c0-17.7 14.3-32 32-32h181c17.7 0 32 14.3 32 32s-14.3 32-32 32H320.8c54.9 41.1 121.4 63.3 191.2 63.3 85.5 0 165.8-33.3 226.3-93.7 60.4-60.4 93.7-140.8 93.7-226.3S798.7 217.5 738.3 157c-95.8-95.8-242.3-120.9-364.4-62.5-32.6 15.6-62.3 36.6-88.1 62.5-12.5 12.5-32.8 12.5-45.3 0s-12.5-32.8 0-45.3c31-31 66.5-56.2 105.7-74.9 35.3-16.9 73-28.3 111.9-33.7 17.9-2.5 35.9-3.8 53.9-3.8 20.7 0 41.5 1.7 62 5 79.8 13 152.2 50.1 209.5 107.5 36.6 36.6 65 79.4 84.4 127 18.7 46 28.1 94.6 28.1 144.5s-9.5 98.5-28.1 144.5zM192 208m-32 0a32 32 0 1 1 64 0 32 32 0 1 1-64 0ZM160 304m-32 0a32 32 0 1 1 64 0 32 32 0 1 1-64 0ZM160 400m-32 0a32 32 0 1 1 64 0 32 32 0 1 1-64 0Z"  horiz-adv-x="1024" />

    
    <glyph glyph-name="filter-" unicode="&#58937;" d="M867.392 21.333333a128.042667 128.042667 0 0 0-241.450667 0H106.666667a42.666667 42.666667 0 1 0 0 85.333334h519.274666a128.042667 128.042667 0 0 0 241.450667 0H917.333333a42.666667 42.666667 0 1 0 0-85.333334h-49.941333zM704 64a42.666667 42.666667 0 1 1 85.333333 0 42.666667 42.666667 0 0 1-85.333333 0z m-71.274667 597.333333a128.042667 128.042667 0 0 0-241.450666 0H106.666667a42.666667 42.666667 0 1 0 0 85.333334h284.608A128.042667 128.042667 0 0 0 632.746667 746.666667H917.333333a42.666667 42.666667 0 1 0 0-85.333334H632.725333zM469.333333 704a42.666667 42.666667 0 1 1 85.333334 0 42.666667 42.666667 0 0 1-85.333334 0z m448-362.666667H398.058667A128.042667 128.042667 0 0 0 156.586667 341.333333H106.666667a42.666667 42.666667 0 1 0 0 85.333334h49.941333a128.042667 128.042667 0 0 0 241.450667 0H917.333333a42.666667 42.666667 0 1 0 0-85.333334z m-682.666666 42.666667a42.666667 42.666667 0 1 1 85.333333 0 42.666667 42.666667 0 0 1-85.333333 0z"  horiz-adv-x="1024" />

    
    <glyph glyph-name="draw" unicode="&#58891;" d="M930.909091 16.290909c27.927273-9.309091 46.545455-18.618182 46.545454-27.927273 0-37.236364-209.454545-69.818182-465.454545-69.818181s-465.454545 32.581818-465.454545 69.818181c0 9.309091 18.618182 18.618182 46.545454 27.927273-55.854545-13.963636-93.090909-32.581818-93.090909-51.2 0-51.2 228.072727-93.090909 512-93.090909s512 41.890909 512 93.090909c0 18.618182-32.581818 37.236364-93.090909 51.2zM107.054545 44.218182c0-4.654545 0-4.654545 4.654546-4.654546l4.654545-4.654545 4.654546-4.654546s4.654545 0 4.654545-4.654545h9.309091l158.254546 27.927273c13.963636 0 23.272727 13.963636 18.618181 27.927272 0 13.963636-13.963636 23.272727-27.927272 18.618182l-125.672728-23.272727 23.272728 125.672727c0 13.963636-4.654545 23.272727-18.618182 27.927273-13.963636 0-23.272727-4.654545-27.927273-18.618182L107.054545 58.181818v-13.963636zM837.818182 626.036364c9.309091-9.309091 23.272727-9.309091 32.581818 0l97.745455 97.745454c9.309091 9.309091 9.309091 23.272727 4.654545 32.581818L837.818182 891.345455c-9.309091 9.309091-23.272727 9.309091-32.581818 0l-97.745455-97.745455c-9.309091-13.963636-9.309091-27.927273 0-37.236364L837.818182 626.036364z m-69.818182 158.254545l46.545455 46.545455c4.654545 4.654545 13.963636 4.654545 18.618181 0l79.127273-79.127273c4.654545-4.654545 4.654545-13.963636 0-18.618182l-46.545454-46.545454c-4.654545-4.654545-13.963636-4.654545-18.618182 0l-79.127273 79.127272c-4.654545 4.654545-4.654545 13.963636 0 18.618182zM181.527273 230.4l130.327272-130.327273 18.618182-18.618182 18.618182 18.618182 18.618182 18.618182 442.181818 442.181818c9.309091 9.309091 9.309091 23.272727 0 32.581818-9.309091 9.309091-23.272727 9.309091-32.581818 0L335.127273 151.272727l-97.745455 97.745455 442.181818 442.181818c9.309091 9.309091 9.309091 23.272727 0 32.581818-9.309091 9.309091-23.272727 9.309091-32.581818 0l-442.181818-442.181818-18.618182-18.618182-18.618182-18.618182 13.963637-13.963636z"  horiz-adv-x="1024" />

    
    <glyph glyph-name="analysis-uncheckx" unicode="&#59012;" d="M899.1232 759.296l48.3328-18.432-225.9968-768-23.04 8.7552-23.6544-6.2976-145.6128 564.224-166.7584-384.8704-17.1008 11.0592-16.5888-10.0864-107.3664 227.84-131.5328-149.5552-35.1744 39.9872 166.2464 189.0304 11.264-12.8 11.776 7.1168 100.608-213.504 173.1584 399.36 29.5424-21.9136 13.056 3.584 139.8784-541.952L899.072 759.296zM704.4096 6.656l0.3072-0.1024 211.456 718.7968-0.3072 0.1024-211.456-718.7968zM541.2352 596.1728h-0.256l152.1152-589.4656 0.256 0.0512L541.184 596.1728z m-12.9024 7.168L350.4128 193.024l0.512-0.3584 177.8688 410.4192-0.512 0.3072zM232.8064 420.7104l-0.5632-0.3584 107.52-228.0448 0.512 0.3584-107.4688 228.0448z m-11.8784 3.4816L88.7296 273.92l1.0752-1.2288 132.1984 150.3232-1.0752 1.1776z"  horiz-adv-x="1024" />

    
    <glyph glyph-name="Load-Button" unicode="&#58895;" d="M789.333333-128h-554.666666A234.922667 234.922667 0 0 0 0 106.666667v554.666666C0 790.698667 105.258667 896 234.666667 896h554.666666C918.741333 896 1024 790.698667 1024 661.333333v-554.666666c0-129.365333-105.258667-234.666667-234.666667-234.666667zM234.666667 853.333333A192.213333 192.213333 0 0 1 42.666667 661.333333v-554.666666C42.666667 0.810667 128.810667-85.333333 234.666667-85.333333h554.666666c105.856 0 192 86.144 192 192v554.666666C981.333333 767.232 895.189333 853.333333 789.333333 853.333333h-554.666666zM704.853333 298.666667H320a21.333333 21.333333 0 0 0-17.92 32.896l192 298.666666c7.850667 12.16 28.032 12.16 35.882667 0l189.312-294.442666a21.418667 21.418667 0 0 0-14.421334-37.12z m-345.770666 42.666666h305.834666L512 579.2 359.082667 341.333333zM704 213.333333h-384a21.333333 21.333333 0 0 0 0 42.666667h384a21.333333 21.333333 0 0 0 0-42.666667z"  horiz-adv-x="1024" />

    
    <glyph glyph-name="Master-Card" unicode="&#58951;" d="M699.733333 708.266667c-71.68 0-133.12-23.893333-187.733333-61.44-54.613333 37.546667-116.053333 61.44-187.733333 61.44-177.493333 0-324.266667-146.773333-324.266667-324.266667 0-64.853333 20.48-126.293333 51.2-177.493333 0-3.413333 3.413333-6.826667 3.413333-6.826667 58.026667-85.333333 157.013333-139.946667 266.24-139.946667 71.68 0 133.12 23.893333 187.733334 61.44 54.613333-37.546667 116.053333-61.44 187.733333-61.44 177.493333 0 324.266667 146.773333 324.266667 324.266667 3.413333 177.493333-143.36 324.266667-320.853334 324.266667z m-187.733333-102.4c10.24-10.24 23.893333-20.48 34.133333-34.133334h-64.853333c6.826667 13.653333 20.48 23.893333 30.72 34.133334z m-88.746667-307.2c-3.413333 10.24-6.826667 23.893333-6.826666 34.133333h194.56c-3.413333-10.24-3.413333-23.893333-6.826667-34.133333h-180.906667z m163.84-34.133334c-6.826667-13.653333-13.653333-23.893333-20.48-34.133333H450.56c-6.826667 10.24-13.653333 23.893333-17.066667 34.133333h153.6z m-177.493333 102.4v17.066667 17.066667h201.386667v-34.133334h-201.386667z m3.413333 68.266667c3.413333 10.24 3.413333 23.893333 6.826667 34.133333H597.333333c3.413333-10.24 6.826667-23.893333 6.826667-34.133333h-191.146667z m23.893334 68.266667c6.826667 10.24 10.24 23.893333 17.066666 34.133333H570.026667c6.826667-10.24 13.653333-23.893333 20.48-34.133333h-153.6z m-112.64 170.666666c47.786667 0 95.573333-13.653333 136.533333-34.133333h-273.066667c40.96 20.48 88.746667 34.133333 136.533334 34.133333z m-180.906667-64.853333c3.413333-3.413333 6.826667-3.413333 10.24-3.413333h310.613333c-10.24-10.24-20.48-20.48-27.306666-34.133334h-331.093334c10.24 13.653333 23.893333 27.306667 37.546667 37.546667z m-64.853333-71.68H413.013333c-6.826667-10.24-10.24-23.893333-17.066666-34.133333h-337.92c6.826667 13.653333 13.653333 23.893333 20.48 34.133333z m-30.72-68.266667h337.92c-3.413333-10.24-6.826667-23.893333-6.826667-34.133333h-341.333333c3.413333 13.653333 6.826667 23.893333 10.24 34.133333z m-13.653334-85.333333v17.066667h341.333334v-34.133334h-341.333334v17.066667z m17.066667-85.333333h-3.413333c-3.413333 10.24-6.826667 23.893333-6.826667 34.133333h341.333333c3.413333-10.24 3.413333-23.893333 6.826667-34.133333h-337.92z m10.24-34.133334h337.92c3.413333-10.24 10.24-23.893333 17.066667-34.133333h-334.506667c-10.24 10.24-17.066667 23.893333-20.48 34.133333z m262.826667-170.666666c-47.786667 0-95.573333 13.653333-136.533334 34.133333h273.066667c-40.96-20.48-88.746667-34.133333-136.533333-34.133333z m-187.733334 68.266666c-13.653333 10.24-23.893333 20.48-34.133333 34.133334h331.093333c10.24-13.653333 17.066667-23.893333 27.306667-34.133334h-324.266667z m341.333334 34.133334h64.853333c-10.24-10.24-20.48-23.893333-34.133333-34.133334-6.826667 10.24-20.48 23.893333-30.72 34.133334z m221.866666-102.4c-58.026667 0-112.64 17.066667-160.426666 47.786666 40.96 34.133333 71.68 78.506667 88.746666 129.706667 0 3.413333 3.413333 3.413333 3.413334 6.826667 10.24 34.133333 17.066667 68.266667 17.066666 102.4 0 95.573333-40.96 180.906667-109.226666 242.346666 44.373333 30.72 102.4 47.786667 160.426666 47.786667 160.426667 0 290.133333-129.706667 290.133334-290.133333s-129.706667-286.72-290.133334-286.72z"  horiz-adv-x="1024" />

    
    <glyph glyph-name="Crop-Image" unicode="&#59750;" d="M1006.933333 110.933333H819.2V674.133333a17.066667 17.066667 0 0 1-17.066667 17.066667H238.933333V878.933333a17.066667 17.066667 0 0 1-34.133333 0V691.2H17.066667a17.066667 17.066667 0 0 1 0-34.133333H204.8v-563.2a17.066667 17.066667 0 0 1 17.066667-17.066667H785.066667v-187.733333a17.066667 17.066667 0 0 1 34.133333 0V76.8h187.733333a17.066667 17.066667 0 0 1 0 34.133333zM785.066667 110.933333H238.933333V657.066667h546.133334v-546.133334z"  horiz-adv-x="1024" />

    
    <glyph glyph-name="Line-Chart" unicode="&#60414;" d="M1014.667947 851.626667c-10.24 3.413333-17.066667 0-20.48-10.24l-116.053334-303.786667-157.013333 348.16c-6.826667 13.653333-27.306667 13.653333-30.72 0L529.974613 527.36l-68.266666 102.4c-3.413333 6.826667-10.24 6.826667-17.066667 6.826667s-10.24-6.826667-13.653333-10.24l-119.466667-354.986667L202.294613 418.133333c-3.413333 3.413333-10.24 6.826667-17.066666 6.826667s-10.24-3.413333-13.653334-10.24L0.907947-18.773333c-3.413333-6.826667 3.413333-17.066667 10.24-20.48h6.826666c6.826667 0 13.653333 3.413333 17.066667 10.24l160.426667 402.773333 109.226666-146.773333c3.413333-3.413333 10.24-6.826667 17.066667-6.826667s10.24 6.826667 13.653333 10.24l119.466667 354.986667 68.266667-98.986667c3.413333-6.826667 10.24-6.826667 17.066666-6.826667s10.24 3.413333 13.653334 10.24l157.013333 351.573334L864.48128 486.4c3.413333-6.826667 10.24-10.24 17.066667-10.24s13.653333 3.413333 17.066666 10.24L1024.907947 831.146667c3.413333 10.24 0 17.066667-10.24 20.48zM1007.84128-93.866667h-989.866667c-10.24 0-17.066667-6.826667-17.066666-17.066666s6.826667-17.066667 17.066666-17.066667h989.866667c10.24 0 17.066667 6.826667 17.066667 17.066667s-6.826667 17.066667-17.066667 17.066666zM157.92128-39.253333l170.666667 129.706666 3.413333 3.413334 163.84 208.213333 160.426667-40.96c3.413333 0 10.24 0 13.653333 3.413333 3.413333 3.413333 6.826667 6.826667 6.826667 10.24l34.133333 242.346667 146.773333-334.506667c3.413333-6.826667 6.826667-10.24 13.653334-10.24s13.653333 3.413333 17.066666 6.826667l129.706667 215.04c10.24 10.24 6.826667 20.48 0 27.306667-6.826667 3.413333-17.066667 3.413333-23.893333-6.826667l-112.64-187.733333-160.426667 358.4c-3.413333 6.826667-10.24 10.24-17.066667 10.24s-13.653333-6.826667-13.653333-13.653334L649.44128 298.666667l-153.6 37.546666c-6.826667 0-13.653333 0-17.066667-6.826666l-170.666666-215.04-170.666667-126.293334c-6.826667-6.826667-10.24-17.066667-3.413333-23.893333 3.413333-3.413333 6.826667-6.826667 13.653333-6.826667 3.413333 0 6.826667 0 10.24 3.413334z"  horiz-adv-x="1026" />

    


  </font>
</defs>
</svg>
